<svg width="56.693400000000004" height="56.693400000000004" xmlns="http://www.w3.org/2000/svg">

 <g>
  <title>background</title>
  <rect fill="none" id="canvas_background" height="402" width="582" y="-1" x="-1"/>
 </g>
 <g>
  <title>Layer 1</title>
  <path fill="#828282" id="svg_1" d="m51.981,24.4812c-7.7173,-0.0038 -15.4346,-0.0019 -23.1518,-0.001c0.001,3.2009 -0.0038,6.4018 0.0019,9.6017c4.4693,-0.001 8.9386,-0.0019 13.407,0c-0.5179,3.0673 -2.3408,5.8723 -4.9258,7.5991c-1.625,1.0926 -3.492,1.8018 -5.4168,2.139c-1.9372,0.3306 -3.9389,0.3729 -5.8713,-0.0183c-1.9651,-0.3921 -3.8409,-1.2108 -5.4773,-2.3649c-2.6166,-1.8383 -4.6135,-4.5279 -5.6388,-7.5549c-1.0484,-3.0788 -1.0561,-6.5046 0.0048,-9.5805c0.7361,-2.1679 1.9613,-4.1705 3.5708,-5.8002c1.9853,-2.0324 4.5664,-3.4853 7.3473,-4.0811c2.3812,-0.5083 4.8921,-0.4113 7.2234,0.294c1.9815,0.6016 3.8082,1.6874 5.3044,3.1163c1.5125,-1.5039 3.0173,-3.0164 4.527,-4.5231c0.7918,-0.811 1.624,-1.5865 2.3908,-2.4196c-2.2928,-2.1218 -4.9805,-3.8274 -7.9172,-4.9056c-5.2871,-1.9458 -11.2497,-1.9871 -16.5723,-0.1449c-5.9982,2.0535 -11.1056,6.5391 -13.9374,12.2087c-0.9859,1.9536 -1.7057,4.0388 -2.1381,6.1836c-1.0878,5.3437 -0.3296,11.0412 2.1352,15.9083c1.6019,3.1768 3.8985,6.001 6.6843,8.215c2.6282,2.0958 5.6916,3.6439 8.9396,4.5078c4.0984,1.0993 8.461,1.0743 12.5864,0.1355c3.7284,-0.8581 7.256,-2.6397 10.0725,-5.24c2.977,-2.7358 5.1006,-6.3403 6.2249,-10.2138c1.2262,-4.2252 1.3953,-8.7359 0.6265,-13.0611z"/>
 </g>
</svg>