<svg width="16" height="23" xmlns="http://www.w3.org/2000/svg">
 <title/>
 <desc/>

 <g>
  <title>background</title>
  <rect fill="none" id="canvas_background" height="402" width="582" y="-1" x="-1"/>
 </g>
 <g>
  <title>Layer 1</title>
  <path fill="#828282" id="Shape" d="m14,7.5l-1,0l0,-2c0,-2.8 -2.2,-5 -5,-5c-2.8,0 -5,2.2 -5,5l0,2l-1,0c-1.1,0 -2,0.9 -2,2l0,10c0,1.1 0.9,2 2,2l12,0c1.1,0 2,-0.9 2,-2l0,-10c0,-1.1 -0.9,-2 -2,-2l0,0zm-6,9c-1.1,0 -2,-0.9 -2,-2c0,-1.1 0.9,-2 2,-2c1.1,0 2,0.9 2,2c0,1.1 -0.9,2 -2,2l0,0zm3.1,-9l-6.2,0l0,-2c0,-1.7 1.4,-3.1 3.1,-3.1c1.7,0 3.1,1.4 3.1,3.1l0,2l0,0z"/>
 </g>
</svg>